<svg version="1.1" xmlns="http://www.w3.org/2000/svg" xmlns:xlink="http://www.w3.org/1999/xlink" width="48" height="48"><defs><linearGradient x1="12.76674" y1="13.36995" x2="53.26448" y2="52.66127" gradientUnits="userSpaceOnUse" id="color-1"><stop offset="0.01" stop-color="#000000" stop-opacity="0.32"></stop><stop offset="1" stop-color="#000000" stop-opacity="0"></stop></linearGradient><filter id="dropshadow-base"><feColorMatrix type="matrix" values="0 0 0 0 0  0 0 0 0 0  0 0 0 0 0  0 0 0 .8 0"></feColorMatrix> <feOffset dx="0" dy="1"></feOffset> <feGaussianBlur stdDeviation="1"></feGaussianBlur> <feComposite in="SourceGraphic"></feComposite></filter><filter id="dropshadow-banner" x="-10%" y="-10%" width="120%" height="130%"><feColorMatrix type="matrix" values="0 0 0 0 0  0 0 0 0 0  0 0 0 0 0  0 0 0 .4 0"></feColorMatrix> <feOffset dx="0" dy="1"></feOffset> <feGaussianBlur stdDeviation="0.5"></feGaussianBlur> <feComposite in="SourceGraphic"></feComposite></filter></defs><g fill="none" fill-rule="nonzero" stroke="none" stroke-width="none" stroke-linecap="butt" stroke-linejoin="miter" stroke-miterlimit="10" stroke-dasharray="" stroke-dashoffset="0" font-family="none" font-weight="none" font-size="none" text-anchor="none" style="mix-blend-mode: normal"><path d="M7,43c-1.10457,0 -2,-0.89543 -2,-2v-34c0,-1.10457 0.89543,-2 2,-2h34c1.10457,0 2,0.89543 2,2v34c0,1.10457 -0.89543,2 -2,2z" id="base 1 5" fill="#2da839" stroke-width="1"></path><path d="M34.65518,13.89064l8.34482,8.34482v18.76454c0,1.10457 -0.89543,2 -2,2l-14.12138,0l-9.39492,-9.39492c-1.68504,-1.68504 -0.06914,-4.16177 0.84979,-6.15979c0.25629,-0.59976 0.44161,-1.43289 0.57095,-2.36405l-6.06725,-6.06725c-0.14399,-0.14399 -0.07079,-0.47409 0.25223,-0.98633c1.22829,-1.94149 3.36813,-4.65598 5.73899,-4.65598c3.69161,0 14.44341,0 14.44341,0c0,0 0.80479,-0.05961 1.38335,0.51894z" fill="url(#color-1)" stroke-width="1"></path><path transform="translate(-2.95981,-2.95981) scale(1.12333,1.12333)" d="M29.55526,29.87772c-2.85727,-2.23413 -0.84076,-11.42353 -0.84076,-11.42353c0,0 3.12769,0 3.49217,0c0.36448,0 1.79333,-0.22916 1.79333,-1.94019c0,-2.1048 -1.74609,-1.97546 -1.74609,-1.97546c0,0 -9.57141,0 -12.85773,0c-2.11057,0 -4.01549,2.41648 -5.10893,4.14482c-0.5821,0.92307 -0.25289,1.18173 0.7467,0.7467c3.50415,-1.53445 4.49177,-0.98185 4.49177,-0.98185c0.24691,1.18173 0.32921,6.51427 -0.57013,8.61885c-0.91131,1.98145 -2.59262,4.49177 -0.12356,5.96744c1.92843,1.09344 3.95072,-1.15244 3.75084,-4.97404c-0.09406,-2.02249 -0.25289,-9.60647 -0.25289,-9.60647h3.22197c-0.10026,1.18173 -0.64666,7.21373 -0.07632,10.78842c0.59364,5.96744 7.07841,4.80922 8.28943,1.42906c0.29971,-0.93482 0.22938,-1.65224 0.00577,-2.1933c-0.41172,-1.00515 -1.09964,-1.05796 -1.0229,-0.58787c0.04724,0.29971 0.01774,0.59364 -0.0295,0.85851c-0.1413,0.81725 -1.81086,2.0986 -3.16318,1.12893z" fill="none" stroke-width="0"></path><g id="Capa_1 2" fill="#000000" stroke-width="1"><g><g><path d="M30.24036,30.6026c-3.20965,-2.50965 -0.94445,-12.83234 -0.94445,-12.83234c0,0 3.51342,0 3.92285,0c0.40943,0 2.01449,-0.25742 2.01449,-2.17947c0,-2.36437 -1.96142,-2.21909 -1.96142,-2.21909c0,0 -10.75181,0 -14.44341,0c-2.37085,0 -4.5107,2.71449 -5.73899,4.65598c-0.65389,1.0369 -0.28408,1.32747 0.83879,0.83879c3.9363,-1.72369 5.04572,-1.10294 5.04572,-1.10294c0.27736,1.32747 0.36981,7.31764 -0.64044,9.68177c-1.0237,2.22581 -2.91236,5.04572 -0.1388,6.70337c2.16626,1.22829 4.43794,-1.29457 4.21341,-5.58746c-0.10566,-2.27192 -0.28408,-10.79119 -0.28408,-10.79119h3.61932c-0.11262,1.32747 -0.72641,8.10336 -0.08573,12.1189c0.66686,6.70337 7.95136,5.40232 9.31172,1.6053c0.33667,-1.05011 0.25767,-1.856 0.00648,-2.46379c-0.4625,-1.12912 -1.23526,-1.18843 -1.14905,-0.66037c0.05307,0.33667 0.01993,0.66686 -0.03314,0.96438c-0.15873,0.91804 -2.03418,2.35741 -3.55328,1.26815z"></path></g></g><g font-family="Roboto, sans-serif" font-weight="400" font-size="14" text-anchor="start"></g><g font-family="Roboto, sans-serif" font-weight="400" font-size="14" text-anchor="start"></g><g font-family="Roboto, sans-serif" font-weight="400" font-size="14" text-anchor="start"></g><g font-family="Roboto, sans-serif" font-weight="400" font-size="14" text-anchor="start"></g><g font-family="Roboto, sans-serif" font-weight="400" font-size="14" text-anchor="start"></g><g font-family="Roboto, sans-serif" font-weight="400" font-size="14" text-anchor="start"></g><g font-family="Roboto, sans-serif" font-weight="400" font-size="14" text-anchor="start"></g><g font-family="Roboto, sans-serif" font-weight="400" font-size="14" text-anchor="start"></g><g font-family="Roboto, sans-serif" font-weight="400" font-size="14" text-anchor="start"></g><g font-family="Roboto, sans-serif" font-weight="400" font-size="14" text-anchor="start"></g><g font-family="Roboto, sans-serif" font-weight="400" font-size="14" text-anchor="start"></g><g font-family="Roboto, sans-serif" font-weight="400" font-size="14" text-anchor="start"></g><g font-family="Roboto, sans-serif" font-weight="400" font-size="14" text-anchor="start"></g><g font-family="Roboto, sans-serif" font-weight="400" font-size="14" text-anchor="start"></g><g font-family="Roboto, sans-serif" font-weight="400" font-size="14" text-anchor="start"></g></g><path d="M2,24c0,-12.15026 9.84974,-22 22,-22c12.15026,0 22,9.84974 22,22c0,12.15026 -9.84974,22 -22,22c-12.15026,0 -22,-9.84974 -22,-22z" id="base 1 1 1" fill="none" stroke-width="1"></path><g id="Capa_1 1 1" fill="#000000" stroke-width="1" font-family="Roboto, sans-serif" font-weight="400" font-size="14" text-anchor="start"><g><g></g></g><g></g><g></g><g></g><g></g><g></g><g></g><g></g><g></g><g></g><g></g><g></g><g></g><g></g><g></g><g></g></g><rect x="2" y="2" width="44" height="22" fill="none" stroke-width="1"></rect><path d="M2,24v-22h44v22z" fill="none" stroke-width="1"></path><path d="M2,24v-22h44v22z" fill="none" stroke-width="1"></path><path d="M2,24v-22h44v22z" fill="none" stroke-width="1"></path><path d="M2,24v-22h44v22z" fill="none" stroke-width="1"></path></g></svg>